# xmcd
#
# Track frame offsets:
#	150
#	19455
#	37538
#
# Disc length: 975 seconds
#
# Revision: 4
# Processed by: cddbd v1.5.2PL0 Copyright (c) Steve Scherf et al.
# Submitted via: audiograbber 1.83.01
#
DISCID=1703cd03
DTITLE=Rihanna - Umbrella
DYEAR=2007
DGENRE=R&B
TTITLE0=Rihanna feat.Jay-Z - Umbrella(Radio Edit)
TTITLE1=Rihanna - Umbrella(Seamus Haji and Paul Emanuel Remix)
TTITLE2=Rihanna - Umbrella(The Lindbergh Palace Remix)
EXTD=
EXTT0=
EXTT1=
EXTT2=
PLAYORDER=
